<svg id="Layer_1" data-name="Layer 1" xmlns="http://www.w3.org/2000/svg" viewBox="0 0 372.96 265.95"><defs><style>.cls-1{fill:#00a651;}.cls-1,.cls-2,.cls-3,.cls-4,.cls-6{stroke:#231f20;stroke-miterlimit:10;}.cls-2{fill:#fff200;}.cls-3{fill:#be1e2d;}.cls-4{fill:none;}.cls-5,.cls-7{fill:#231f20;}.cls-6{fill:#f15a29;}.cls-7{font-size:14px;font-family:MyriadPro-Regular, Myriad Pro;}.cls-8{letter-spacing:-0.02em;}.cls-9{letter-spacing:-0.01em;}.cls-10{letter-spacing:0.01em;}.cls-11{letter-spacing:-0.01em;}.cls-12{letter-spacing:0em;}.cls-13{letter-spacing:-0.01em;}.cls-14{letter-spacing:-0.01em;}.cls-15{letter-spacing:0em;}.cls-16{letter-spacing:-0.01em;}.cls-17{letter-spacing:-0.01em;}</style></defs><circle class="cls-1" cx="95.46" cy="72.94" r="12.25"/><circle class="cls-1" cx="219.21" cy="72.94" r="12.25"/><circle class="cls-1" cx="177.96" cy="72.94" r="12.25"/><circle class="cls-1" cx="136.71" cy="72.94" r="12.25"/><circle class="cls-2" cx="12.96" cy="121.94" r="12.25"/><circle class="cls-2" cx="136.71" cy="121.94" r="12.25"/><circle class="cls-2" cx="95.46" cy="121.94" r="12.25"/><circle class="cls-2" cx="54.21" cy="121.94" r="12.25"/><circle class="cls-2" cx="177.96" cy="121.94" r="12.25"/><circle class="cls-2" cx="219.21" cy="121.94" r="12.25"/><circle class="cls-2" cx="260.46" cy="121.94" r="12.25"/><circle class="cls-2" cx="301.71" cy="121.94" r="12.25"/><circle class="cls-3" cx="116.09" cy="170.94" r="12.25"/><circle class="cls-3" cx="198.59" cy="170.94" r="12.25"/><circle class="cls-3" cx="157.34" cy="170.94" r="12.25"/><line class="cls-4" x1="83.21" y1="72.94" x2="19.32" y2="106.36"/><polygon class="cls-5" points="18.3 101.27 12.96 109.69 22.93 110.1 18.3 101.27"/><line class="cls-4" x1="231.46" y1="72.94" x2="295.35" y2="106.36"/><polygon class="cls-5" points="291.75 110.1 301.71 109.69 296.37 101.27 291.75 110.1"/><line class="cls-4" x1="301.71" y1="134.19" x2="217.49" y2="168.25"/><polygon class="cls-5" points="216.97 163.08 210.84 170.94 220.71 172.32 216.97 163.08"/><line class="cls-4" x1="12.96" y1="134.19" x2="97.18" y2="168.25"/><polygon class="cls-5" points="93.96 172.32 103.84 170.94 97.7 163.08 93.96 172.32"/><circle class="cls-6" cx="277.71" cy="207.69" r="12.25"/><circle class="cls-6" cx="360.21" cy="207.69" r="12.25"/><circle class="cls-6" cx="318.96" cy="207.69" r="12.25"/><path class="cls-4" d="M349,303c-5.64,43,12.5,60,31.12,61,13.08.71,30.85-2.21,40.8-19.51" transform="translate(-148.66 -117.56)"/><polygon class="cls-5" points="276 230.39 275.34 220.44 267.05 225.99 276 230.39"/><path class="cls-4" d="M264.75,300.75C277.48,366.2,337,383.47,396.88,383c45-.36,89.17-.27,112.67-39.2" transform="translate(-148.66 -117.56)"/><polygon class="cls-5" points="364.48 229.91 364.34 219.94 355.77 225.04 364.48 229.91"/><path class="cls-4" d="M426.38,313c4.44-1.87,26.94-15.57,36.62-35,6.4-12.85,4.09-24.31,1.81-31.67" transform="translate(-148.66 -117.56)"/><polygon class="cls-5" points="321.3 128.68 313.96 121.94 311.79 131.67 321.3 128.68"/><path class="cls-4" d="M513,313c1.45-17.26,4.84-60.3-13-96-28.51-57.06-83-77.22-104-85-17.24-6.38-76.65-27.32-145-1-62.66,24.13-88.74,70-98.51,89.79" transform="translate(-148.66 -117.56)"/><polygon class="cls-5" points="0 99.74 0.71 109.69 8.97 104.1 0 99.74"/><text class="cls-7" transform="translate(103.84 54.22)"><tspan class="cls-8">P</tspan><tspan class="cls-9" x="7.22" y="0">r</tspan><tspan x="11.66" y="0">oje</tspan><tspan class="cls-10" x="29.76" y="0">c</tspan><tspan x="36.22" y="0">tion Neu</tspan><tspan class="cls-11" x="86.49" y="0">r</tspan><tspan class="cls-12" x="90.93" y="0">ons</tspan></text><text class="cls-7" transform="translate(122.15 106.91)">Ke<tspan class="cls-13" x="14.6" y="0">n</tspan><tspan class="cls-14" x="22.19" y="0">y</tspan><tspan class="cls-15" x="28.64" y="0">on </tspan><tspan class="cls-16" x="47.07" y="0">C</tspan><tspan x="55.03" y="0">ells</tspan></text><text class="cls-7" transform="translate(139.09 155.56)">MBON</text><text class="cls-7" transform="translate(313.96 191.44)"><tspan class="cls-17">D</tspan><tspan x="9.13" y="0">AN</tspan></text></svg>